<svg xmlns="http://www.w3.org/2000/svg" viewBox="0 0 100 100"><defs><filter id="n" x="-40%" y="-40%" width="180%" height="180%"><feGaussianBlur stdDeviation="2.6" result="b"/><feMerge><feMergeNode in="b"/><feMergeNode in="b"/><feMergeNode in="SourceGraphic"/></feMerge></filter></defs><rect width="100" height="100" rx="22" fill="#0b0a0e"/><g filter="url(#n)"><g fill="none" stroke="#fff" stroke-width="4.2" stroke-linejoin="round" stroke-linecap="round"><rect x="22" y="30" width="56" height="44" rx="7.5"/><line x1="22" y1="42" x2="78" y2="42"/></g><g stroke="#fff" stroke-width="3.4" stroke-linecap="round"><line x1="32" y1="25" x2="32" y2="33"/><line x1="44" y1="25" x2="44" y2="33"/><line x1="56" y1="25" x2="56" y2="33"/><line x1="68" y1="25" x2="68" y2="33"/></g><g fill="#ff2d6c"><rect x="29.0" y="47.8" width="6.4" height="5.4" rx="1.7"/><rect x="38.4" y="47.8" width="6.4" height="5.4" rx="1.7"/><rect x="47.8" y="47.8" width="6.4" height="5.4" rx="1.7"/><rect x="57.2" y="47.8" width="6.4" height="5.4" rx="1.7"/><rect x="66.6" y="47.8" width="6.4" height="5.4" rx="1.7"/><rect x="29.0" y="56.6" width="6.4" height="5.4" rx="1.7"/><rect x="38.4" y="56.6" width="6.4" height="5.4" rx="1.7"/><rect x="47.8" y="56.6" width="6.4" height="5.4" rx="1.7"/><rect x="57.2" y="56.6" width="6.4" height="5.4" rx="1.7"/><rect x="66.6" y="56.6" width="6.4" height="5.4" rx="1.7"/><rect x="29.0" y="65.4" width="6.4" height="5.4" rx="1.7"/><rect x="38.4" y="65.4" width="6.4" height="5.4" rx="1.7"/><rect x="47.8" y="65.4" width="6.4" height="5.4" rx="1.7"/><rect x="57.2" y="65.4" width="6.4" height="5.4" rx="1.7"/><rect x="66.6" y="65.4" width="6.4" height="5.4" rx="1.7"/></g></g></svg>